<?xml version="1.0" encoding="utf-8"?>
<!-- Generator: Adobe Illustrator 15.0.0, SVG Export Plug-In . SVG Version: 6.00 Build 0)  -->
<!DOCTYPE svg PUBLIC "-//W3C//DTD SVG 1.1//EN" "http://www.w3.org/Graphics/SVG/1.1/DTD/svg11.dtd">
<svg version="1.1" id="Camada_1" xmlns="http://www.w3.org/2000/svg" xmlns:xlink="http://www.w3.org/1999/xlink" x="0px" y="0px"
	 width="197.781px" height="59px" viewBox="37.49 0 197.781 59" enable-background="new 37.49 0 197.781 59" xml:space="preserve">
<g>
	<path fill="#FFFFFF" d="M118.918,29.178c-3.578,1.716-5.77,2.737-9.016,2.737c-5.188,0-8.875-3.176-8.875-7.63
		c0-4.417,3.724-7.558,9.02-7.558c3.066,0,5.844,1.023,8.58,2.556v-5.549c-2.447-1.462-5.551-2.191-9.018-2.191
		c-9.531,0-14.973,6.207-14.973,12.849c0,6.428,4.818,12.708,14.494,12.708c3.688,0,6.316-0.69,9.785-2.482L118.918,29.178z
		 M142.863,11.903h-7.194l-10.036,24.898h6.57l1.861-4.929h11.135l2.045,4.929h6.683L142.863,11.903L142.863,11.903z
		 M143.375,27.529h-7.666l3.648-9.675L143.375,27.529z M159.673,11.905v24.896h6.207V26.8h4.933c5.729,0,8.215-4.017,8.215-7.521
		c0-3.396-2.557-7.374-8.254-7.374H159.673z M165.88,16.466h2.19c3.358,0,4.563,0.768,4.563,2.887c0,1.86-1.021,2.884-3.87,2.884
		h-2.885L165.88,16.466z M203.561,32.24h-12.159v-5.989h11.354v-4.562h-11.354v-5.223h11.903v-4.561h-18.108v24.898h18.364V32.24z
		 M231.274,13.509c-3.146-1.348-5.661-1.934-8.437-1.934c-5.77,0-9.49,2.849-9.49,7.155c0,8.945,12.668,7.448,12.668,11.54
		c0,1.459-1.279,2.299-3.652,2.299c-2.738,0-4.93-0.84-8.508-3.212v5.367c2.48,1.279,4.639,2.41,8.982,2.41
		c5.553,0,9.564-2.773,9.564-7.559c0-8.686-12.67-7.63-12.67-11.391c0-1.242,1.426-2.045,3.648-2.045
		c2.117,0,4.271,0.622,7.892,2.226L231.274,13.509L231.274,13.509z M88.258,29.182V29.18c0.135-0.229,0.27-0.493,0.396-0.794
		c0.131-0.3,0.246-0.623,0.332-0.964c0.467-1.768,0.32-4.158-2.027-6.538l-0.008-0.008c-0.447-0.451-0.928-0.867-1.438-1.245
		c-0.521-0.382-1.066-0.728-1.635-1.035c-2.975-1.609-6.678-2.295-10.545-2.226h-0.016c-0.07,0.006-0.254,0.014-0.539,0.031
		c-0.257,0.013-0.608,0.035-1.029,0.065c-1.035,0.075-2.41,0.182-3.428,0.281c1.701,0.316,3.277,0.662,4.819,1.115
		c2.545,0.747,4.982,1.821,7.251,3.197c3.553,2.163,5.33,4.467,6.063,6.543c0.461,1.304,0.518,2.518,0.338,3.557
		C87.353,30.557,87.844,29.893,88.258,29.182 M56.619,38.527l0.021,0.004c0.55,0.111,1.133,0.205,1.741,0.285
		c0.621,0.078,1.26,0.14,1.91,0.18c3.424,0.21,7.508-0.078,11.992-1l0.002-0.003c0.433-0.089,0.838-0.177,1.225-0.267
		c0.371-0.092,0.773-0.19,1.203-0.309c0.08-0.021,0.164-0.038,0.242-0.064c-0.67,0.045-1.31,0.072-1.91,0.09h-0.012
		c-1.06,0.035-2.156,0.023-3.268-0.02c-1.12-0.048-2.238-0.127-3.354-0.234c-5.75-0.541-11.354-1.771-14.002-2.461
		c-0.657-0.172-1.312-0.354-1.963-0.545c-0.25-0.072-0.496-0.154-0.74-0.229c0.132,0.275,0.287,0.553,0.466,0.826
		C51.216,36.354,53.146,37.816,56.619,38.527 M85.078,29.446c-0.035-0.331-0.112-0.656-0.227-0.969
		c-0.154-0.404-0.343-0.795-0.563-1.167c-1.279-2.172-4.055-4.768-8.496-6.581c-0.189-0.08-0.437-0.178-0.723-0.279
		c-0.302-0.109-0.66-0.236-1.078-0.371c-2.146-0.692-5.783-1.624-10.65-2.063H63.34l-0.149-0.013
		c-1.254-0.112-2.798-0.25-4.916-0.238l-0.173,0.126c-0.063,0.045-0.162,0.115-0.3,0.218c-0.504,0.364-1.002,0.749-1.491,1.145
		c-0.441,0.357-0.873,0.726-1.292,1.108c-0.42,0.383-0.834,0.785-1.234,1.205c-2.049,2.136-3.752,4.678-4.561,7.515v0.003v-0.001
		c-0.02,0.062-0.035,0.138-0.055,0.217c-0.16,0.802-0.19,1.626-0.092,2.439c0.965,0.361,2.065,0.701,3.377,1.043
		c1.463,0.375,3.168,0.744,5.23,1.128V33.91l0.003,0.001l1.042,0.2c1.801,0.349,4.143,0.803,6.959,1.082
		c4.028,0.414,8.091,0.34,12.102-0.219c0.904-0.116,1.803-0.271,2.693-0.465c0.889-0.195,1.76-0.468,2.603-0.813
		c0.632-0.526,1.171-1.125,1.528-1.819C84.982,31.182,85.164,30.385,85.078,29.446 M54.877,17.907
		c-0.592,0.041-1.186,0.09-1.781,0.147h-0.005c-0.409,0.042-0.817,0.101-1.222,0.178c-0.426,0.081-0.873,0.183-1.32,0.303
		c-2.313,0.62-4.819,1.751-6.494,3.249c-0.461,0.411-0.86,0.885-1.188,1.408c-0.408,0.652-0.705,1.422-0.711,2.241
		c-0.008,0.814,0.275,1.697,1.026,2.604c0.44,0.539,1.054,1.087,1.856,1.63c0.423,0.283,0.857,0.554,1.324,0.817v0.002
		c0.229,0.131,0.465,0.252,0.705,0.377c0.002-0.26,0.014-0.516,0.035-0.764c0.117-1.354,0.486-2.523,0.838-3.343
		c0.27-0.635,0.592-1.27,0.953-1.889c0.354-0.61,0.744-1.202,1.151-1.768C51.599,20.953,53.453,19.134,54.877,17.907 M77.555,38.613
		c-2.119,0.721-4.29,1.277-6.494,1.666c-2.529,0.447-5.449,0.746-8.82,0.762h-0.055c-0.73,0.002-1.423-0.021-2.074-0.07
		c-0.633-0.041-1.264-0.106-1.892-0.195c-3.081-0.426-5.282-1.297-6.317-1.936c-0.396-0.242-0.77-0.5-1.109-0.759
		c-0.327-0.25-0.641-0.517-0.94-0.8c-1.401-1.328-2.163-2.776-2.524-4.188c-1.895-0.765-3.367-1.601-4.479-2.55
		c-1.194-1.025-1.974-2.174-2.403-3.5c-0.279-0.851-0.331-1.76-0.15-2.637c0.416-2.097,2.035-3.892,3.634-5.042
		c0.233-0.173,0.503-0.345,0.8-0.526c0.287-0.176,0.613-0.359,0.979-0.551c1.815-0.945,4.346-1.906,6.938-2.262
		c0.918-0.127,1.825-0.21,2.715-0.267c0.828-0.05,1.657-0.076,2.487-0.077c1.011-0.673,2.047-1.308,3.105-1.902
		c1.07-0.599,2.161-1.159,3.271-1.68c5.529-2.593,11.005-3.984,15.232-4.647c0.048-0.043,0.097-0.083,0.145-0.115
		c0.264-0.182,0.584-0.26,0.869-0.26v0.003c0.387,0,0.732,0.163,0.984,0.427c0.252,0.264,0.408,0.626,0.408,1.029h0.002h-0.002
		c0,0.4-0.156,0.764-0.408,1.027c-0.44,0.468-1.148,0.563-1.697,0.228c-0.104-0.067-0.199-0.146-0.283-0.237
		c-1.842,0.231-3.667,0.576-5.467,1.031c-4.451,1.132-8.721,2.886-12.684,5.21c0.354,0.023,0.695,0.052,1.032,0.082
		c0.771,0.069,1.525,0.158,2.259,0.254c0.135-0.095,0.276-0.179,0.424-0.251c0.24-0.119,0.489-0.221,0.744-0.304
		c1.328-0.448,3.181-0.674,4.115-0.763c2.348-0.225,4.215-0.312,5.914-0.23c1.717,0.079,3.258,0.329,4.939,0.772l0.01,0.005h0.004
		c1.178,0.31,2.232,0.688,3.188,1.116c0.953,0.43,1.789,0.909,2.521,1.413c3.821,2.667,4.821,6.226,4.644,8.395v0.003
		c-0.066,0.784-0.22,1.558-0.459,2.308c-0.658,2.037-2.074,4.162-4.822,5.787c-0.297,0.182-0.584,0.34-0.857,0.479
		c-0.26,0.135-0.527,0.266-0.813,0.396c-0.237,0.186-0.48,0.361-0.729,0.531c-0.278,0.189-0.562,0.369-0.85,0.543
		C81.08,37.236,79.3,38.018,77.555,38.613"/>
	<path fill="#FFFFFF" d="M69.776,26.964c0,1.125-0.447,2.205-1.243,3c-1.657,1.658-4.344,1.659-6.002,0.002
		c-0.001-0.001-0.001-0.001-0.002-0.002c-0.796-0.795-1.242-1.875-1.24-3h-0.002h0.002c0-1.174,0.477-2.237,1.24-3.003
		c0.797-0.795,1.877-1.241,3.003-1.24v-0.005v0.005c1.173,0,2.233,0.476,3.001,1.24C69.331,24.757,69.778,25.837,69.776,26.964z"/>
</g>
</svg>
